<?xml version="1.0" encoding="UTF-8" standalone="no"?>
<!-- Created with Inkscape (http://www.inkscape.org/) -->

<svg
   xmlns:dc="http://purl.org/dc/elements/1.1/"
   xmlns:cc="http://creativecommons.org/ns#"
   xmlns:rdf="http://www.w3.org/1999/02/22-rdf-syntax-ns#"
   xmlns:svg="http://www.w3.org/2000/svg"
   xmlns="http://www.w3.org/2000/svg"
   xmlns:xlink="http://www.w3.org/1999/xlink"
   xmlns:sodipodi="http://sodipodi.sourceforge.net/DTD/sodipodi-0.dtd"
   xmlns:inkscape="http://www.inkscape.org/namespaces/inkscape"
   width="478.91974"
   height="174.69215"
   id="svg2"
   version="1.1"
   inkscape:version="0.48.4 r9939"
   sodipodi:docname="hollenfest.svg"
   inkscape:export-filename="C:\wamp\www\HollenFest\PSD\hollenfest_metal.png"
   inkscape:export-xdpi="200"
   inkscape:export-ydpi="200">
  <defs
     id="defs4">
    <linearGradient
       id="linearGradient3821">
      <stop
         style="stop-color:#ffffff;stop-opacity:1;"
         offset="0"
         id="stop3823" />
      <stop
         id="stop3835"
         offset="0.5"
         style="stop-color:#171717;stop-opacity:1;" />
      <stop
         style="stop-color:#c3c3c3;stop-opacity:1;"
         offset="1"
         id="stop3825" />
    </linearGradient>
    <linearGradient
       id="linearGradient3813">
      <stop
         style="stop-color:#000000;stop-opacity:1;"
         offset="0"
         id="stop3815" />
      <stop
         id="stop3829"
         offset="0.28646615"
         style="stop-color:#5e5e5e;stop-opacity:1;" />
      <stop
         style="stop-color:#ffffff;stop-opacity:1;"
         offset="0.39358851"
         id="stop3831" />
      <stop
         id="stop3833"
         offset="0.6822772"
         style="stop-color:#717171;stop-opacity:1;" />
      <stop
         style="stop-color:#ffffff;stop-opacity:1;"
         offset="1"
         id="stop3817" />
    </linearGradient>
    <linearGradient
       inkscape:collect="always"
       xlink:href="#linearGradient3821"
       id="linearGradient3819"
       x1="540.41473"
       y1="177.08733"
       x2="540.41473"
       y2="2.395169"
       gradientUnits="userSpaceOnUse" />
    <linearGradient
       inkscape:collect="always"
       xlink:href="#linearGradient3813"
       id="linearGradient3827"
       x1="540.41473"
       y1="177.08733"
       x2="540.41473"
       y2="2.395169"
       gradientUnits="userSpaceOnUse" />
  </defs>
  <sodipodi:namedview
     id="base"
     pagecolor="#ffffff"
     bordercolor="#666666"
     borderopacity="1.0"
     inkscape:pageopacity="0.0"
     inkscape:pageshadow="2"
     inkscape:zoom="1.7498066"
     inkscape:cx="202.2385"
     inkscape:cy="89.217055"
     inkscape:document-units="px"
     inkscape:current-layer="layer1"
     showgrid="false"
     fit-margin-top="10"
     fit-margin-left="10"
     fit-margin-right="10"
     fit-margin-bottom="10"
     inkscape:window-width="1920"
     inkscape:window-height="1031"
     inkscape:window-x="1353"
     inkscape:window-y="-7"
     inkscape:window-maximized="1"
     inkscape:snap-page="true" />
  <metadata
     id="metadata7">
    <rdf:RDF>
      <cc:Work
         rdf:about="">
        <dc:format>image/svg+xml</dc:format>
        <dc:type
           rdf:resource="http://purl.org/dc/dcmitype/StillImage" />
        <dc:title></dc:title>
      </cc:Work>
    </rdf:RDF>
  </metadata>
  <g
     inkscape:label="Layer 1"
     inkscape:groupmode="layer"
     id="layer1"
     transform="translate(-61.494965,-2.3951691)">
    <g
       id="g3041"
       style="fill:url(#linearGradient3827);stroke:url(#linearGradient3819);stroke-opacity:1;stroke-width:3;stroke-miterlimit:4;stroke-dasharray:none;fill-opacity:1;stroke-linecap:butt">
      <path
         sodipodi:nodetypes="sscccscsscssssscccscsscsssscccccccccccccccsssscssssscccccccccccccccccssscscssscccssssscccccccccccssssscccssscccccssscccccccccccccccccssscccssscccsssccccscscssscccscccccscssssssss"
         style="fill:url(#linearGradient3827);stroke:url(#linearGradient3819);stroke-opacity:1;stroke-width:3;stroke-miterlimit:4;stroke-dasharray:none;fill-opacity:1;stroke-linecap:butt"
         d="m 272.91471,160.06499 c 0,-6.79817 -0.12719,-7.16033 -3.98416,-11.34465 l -3.98417,-4.32231 -0.26583,-28.40535 -0.26584,-28.405351 -8.25,-0.29044 c -4.5375,-0.15975 -8.23569,0.0652 -8.2182,0.5 0.0175,0.43474 0.6925,1.66395 1.5,2.73157 1.2084,1.59765 1.4682,6.81446 1.4682,29.482111 l 0,27.54098 9.73124,9.76789 c 5.35218,5.37234 10.30218,9.76789 11,9.76789 0.90456,0 1.26876,-2.01575 1.26876,-7.02234 z m 21,0 c 0,-6.79817 -0.12719,-7.16033 -3.98416,-11.34465 l -3.98417,-4.32231 -0.26583,-28.40535 -0.26584,-28.405351 -8.25,-0.29044 c -4.5375,-0.15975 -8.23569,0.0652 -8.2182,0.5 0.0175,0.43474 0.6925,1.66395 1.5,2.73157 1.2084,1.59765 1.4682,6.81446 1.4682,29.482111 l 0,27.54098 9.73124,9.76789 c 5.35218,5.37234 10.30218,9.76789 11,9.76789 0.90456,0 1.26876,-2.01575 1.26876,-7.02234 z m 103.23123,-15.72766 0.26877,-22.75 9.5,-0.5 9.5,-0.5 0,-5.5 0,-5.5 -9.5,-0.5 -9.5,-0.5 0,-4 0,-4 9.5,-0.5 9.5,-0.500001 0,-6 0,-6 -16.5,0 -16.5,0 -0.2848,10.23344 c -0.25002,8.983541 -0.52483,10.361901 -2.25,11.285181 -2.8654,1.53352 -2.83952,10.44309 0.0348,11.98138 1.87733,1.00471 2,2.09382 2,17.75619 l 0,16.68582 5.7187,5.77899 c 3.14528,3.17845 6.28683,5.779 6.98122,5.779 0.97183,0 1.32442,-5.23818 1.53131,-22.75 z m 128.76877,15.22766 c 0,-7.39246 -0.0694,-7.59765 -4.02023,-11.88378 l -4.02022,-4.36143 0.27022,-21.36622 0.27023,-21.36623 6,-0.5 6,-0.500001 0,-6 0,-6 -34.72929,-0.26293 -34.72929,-0.26294 -2.75785,4.26294 -2.75786,4.26293 -0.51285,-4 -0.51286,-4 -16.5,0 -16.5,0 -0.26874,23.374141 -0.26873,23.37415 3.73483,4.62585 c 2.05415,2.54422 4.20008,4.95647 4.76873,5.36055 0.56865,0.40408 12.83833,0.74158 27.26596,0.75 l 26.23205,0.0153 4.98327,-6.75 c 2.7408,-3.7125 4.99888,-7.55237 5.01795,-8.53305 0.0191,-0.98068 -4.91715,-7.70635 -10.9694,-14.94593 -6.05224,-7.23958 -10.6301,-13.53684 -10.17302,-13.99392 0.45708,-0.45708 7.77142,-0.70642 16.25408,-0.55408 l 15.42302,0.27698 0.26864,23.5 0.26863,23.5 9.71261,9.75 c 5.34193,5.3625 10.28354,9.75 10.98136,9.75 0.91257,0 1.26876,-2.11181 1.26876,-7.52233 z m -90.60184,-29.88246 c -0.29649,-0.77265 -0.39487,-2.91015 -0.21862,-4.75 l 0.32046,-3.3452 9.5,-0.5 9.5,-0.5 0,-5.5 0,-5.5 -9.5,-0.5 -9.5,-0.5 0,-4 0,-4 9.01466,-0.28441 9.01466,-0.28441 12.66484,14.74397 c 6.96566,8.10919 12.445,15.09968 12.17632,15.53442 -0.26868,0.43473 -9.92608,0.79043 -21.46088,0.79043 -17.08798,0 -21.07221,-0.26019 -21.51144,-1.4048 z m -59.63584,-5.3452 -0.26232,-36.750001 -6.5,0 -6.5,0 -0.27095,7.5 c -0.14902,4.125 -0.50507,8.147641 -0.79122,8.939201 -0.35763,0.9893 -3.41059,-1.4391 -9.76618,-7.768261 l -9.2459,-9.20746 -24.46288,0.26826 -24.46287,0.26826 -0.26874,23.374141 -0.26873,23.37415 3.73483,4.62585 c 2.05415,2.54422 4.20008,4.96398 4.76873,5.37724 0.56865,0.41326 6.43391,0.63826 13.03391,0.5 l 12,-0.25138 0,-6.5 0,-6.5 -9.5,-0.5 -9.5,-0.5 0,-4.5 0,-4.5 9.5,-0.5 9.5,-0.5 0,-5.5 0,-5.5 -9.5,-0.5 -9.5,-0.5 0,-4 0,-4 9.5,-0.5 9.5,-0.500001 0.5,-5.2217 c 0.41413,-4.32495 0.7576,-5.0613 2,-4.28774 1.25162,0.77931 1.58279,5.36968 2,27.721701 l 0.5,26.78774 6.5,0 6.5,0 0.27256,-18.25 c 0.14991,-10.0375 0.67857,-18.25 1.17481,-18.25 0.49624,0 4.31109,3.88858 8.47744,8.64128 l 7.57519,8.64128 0,12.07972 0,12.07973 5.7187,5.77899 c 3.14528,3.17845 6.30082,5.779 7.01232,5.779 1.03945,0 1.24208,-7.22052 1.0313,-36.75 z m -137.05252,14.94011 4.32677,-5.30989 -0.26829,-23.19011 -0.26828,-23.190111 -15,-0.24902 c -8.25,-0.13696 -15.46526,0.088 -16.03391,0.5 -0.56865,0.41196 -2.70615,2.82037 -4.75,5.35201 l -3.71609,4.60299 0,22.980351 c 0,12.63918 0.31126,23.29159 0.69168,23.67202 0.38042,0.38042 7.44161,0.56792 15.69152,0.41666 l 14.99984,-0.27501 z m -21.25052,-9.43562 c -0.28509,-0.74294 -0.39256,-7.62913 -0.23881,-15.30265 l 0.27953,-13.95184 5.5,0 5.5,0 0,15 0,15 -5.26118,0.30265 c -3.71799,0.21387 -5.41323,-0.0936 -5.77954,-1.04816 z m 0.95893,-48.361481 c 2.63417,-1.01082 1.97365,-5.25656 -0.9312,-5.98563 -4.14514,-1.04036 -7.05708,2.62255 -4.28701,5.39262 1.33214,1.33214 2.84426,1.50398 5.21821,0.59301 z m 14.65136,-0.97683 c 0.95006,-1.14476 1.025,-2.04572 0.27031,-3.25 -1.47933,-2.36064 -5.46496,-2.71561 -6.99511,-0.62301 -2.88186,3.94118 3.57972,7.66259 6.7248,3.87301 z"
         id="path3016"
         inkscape:connector-curvature="0" />
      <path
         sodipodi:nodetypes="cszzzczzzccczzzczzczcccccccscsc"
         style="fill:url(#linearGradient3827);stroke:url(#linearGradient3819);stroke-opacity:1;stroke-width:3;stroke-miterlimit:4;stroke-dasharray:none;fill-opacity:1;stroke-linecap:butt"
         d="m 127.45283,145.49222 c -0.14776,-0.46449 -0.43623,-25.78089 -0.64104,-45.846559 -0.40355,-39.5343 5.81444,-59.074221 -8.1645,-55.257792 -13.97895,3.816429 -15.14362,25.255234 -26.972812,29.762796 -11.829196,4.507562 -20.029438,-3.059197 -20.177111,-12.43725 -0.147673,-9.378052 6.564221,-18.631227 6.564221,-18.631227 0,0 -3.587474,23.277299 9.241429,17.06631 12.828903,-6.210989 14.840433,-41.330297 31.380463,-45.615951 16.54003,-4.285655 26.88739,2.126109 30.24924,14.580312 3.36185,12.454203 1.09994,32.300179 1.46414,48.237632 l 12.16101,0 12.16102,0 c 1.5879,-16.217197 -4.38281,-39.496046 1.89275,-49.973507 6.27556,-10.477461 13.35735,-18.1122125 31.99047,-13.712366 18.63312,4.399846 15.77278,40.772887 27.47474,42.795145 11.70196,2.022257 9.64566,-13.966223 9.64566,-13.966223 0,0 4.45977,1.612677 4.85155,14.937522 0.39179,13.324845 -9.94361,19.180888 -22.83403,11.596218 -12.89042,-7.58467 -8.03047,-26.719482 -23.70589,-30.145085 -13.96956,-2.740069 -5.73509,32.175513 -5.95755,61.101275 -0.22246,28.92576 -0.3869,46.01546 -0.3869,46.01546 l -11.1476,0 -11.14759,0 -0.33781,-28.44955 -0.3378,-19.930553 -12.16102,0 -12.16101,0 -0.36347,19.930553 c -0.19991,10.96181 -0.42793,28.52556 -0.50671,28.61846 -0.0788,0.0929 -5.01718,0.1689 -10.97423,0.1689 -8.07113,0 -10.89945,-0.2152 -11.09962,-0.84452 z"
         id="path3035"
         inkscape:connector-curvature="0" />
    </g>
  </g>
</svg>
